<?xml version="1.0" encoding="UTF-8"?>
<svg id="Layer_1" xmlns="http://www.w3.org/2000/svg" version="1.1" viewBox="0 0 200 200">
  <!-- Generator: Adobe Illustrator 29.3.1, SVG Export Plug-In . SVG Version: 2.1.0 Build 151)  -->
  <g id="HIEHQa.tif">
    <g>
      <path d="M29.1,119.56l-.31-.96v-50.28c.53-4.53.8-9.12,1.81-13.4,4.96-21.09,20.48-40.64,42.29-49.5,3.29-1.34,6.22-2.38,9.78-3.26,45.21-11.21,88.65,22.7,88.54,69.45l-.14,47.59-.24.36h-31.98s-.01,19.03-.01,19.03c.91,14.36,12.09,27.28,27.52,28.84,1.57.16,3.15.1,4.71.24l.14,31.01c.06,1.64-1.41,1.32-2.61,1.26-11.97-.55-23.03-3.62-33.14-10.09-13.02-8.33-23.35-22.81-27.02-37.26-.93-3.67-1.25-7.56-1.81-11.47v-21.56s31.92,0,31.92,0c.03,0,.21-.44.31-.52v-51.61c-.27-1.88-.82-3.85-1.2-5.54-3.41-15.11-16.34-27.49-33.18-29.42-18.35-2.11-35.5,9.04-41.32,26.37-2.25,6.69-2.01,13.39-2,20.39.03,12.34.81,25.62.16,37.88-.04.8-.21,1.66-.31,2.45h-31.91Z"/>
      <path d="M93.22,119.56s.22.43.31.52v19.85c-.62,2.59-.29,5.59-.91,8.16-.33,1.39-.88,3.03-1.19,4.38-.76,3.38-1.81,6.28-3.34,9.69-6.47,14.45-17.37,25.84-32.7,32.47-7.09,3.06-16.86,5.71-25.48,5.17-.38-.02-.74-.1-1.11-.16v-31.62s.69-.42.83-.43c1.15-.16,2.65-.04,3.87-.16,15.93-1.65,27.02-14.6,27.82-29.59v-18.28s31.9,0,31.9,0Z"/>
    </g>
  </g>
</svg>